<svg xmlns="http://www.w3.org/2000/svg" viewBox="0 0 1200 675" width="1200" height="675" role="img" aria-label="계란과 치즈">
  <defs>
    <linearGradient id="cbg2" x1="0" y1="0" x2="1" y2="1"><stop offset="0" stop-color="#fbf7ee"/><stop offset="1" stop-color="#f6efdf"/></linearGradient>
    <linearGradient id="chz" x1="0" y1="0" x2="0" y2="1"><stop offset="0" stop-color="#ffd85a"/><stop offset="1" stop-color="#f0b52e"/></linearGradient>
    <radialGradient id="y2" cx="0.4" cy="0.35" r="0.7"><stop offset="0" stop-color="#ffd35a"/><stop offset="1" stop-color="#f2a825"/></radialGradient>
  </defs>
  <rect width="1200" height="675" fill="url(#cbg2)"/>
  <rect x="0" y="70" width="170" height="66" fill="#2f9e6f"/>
  <text x="30" y="114" font-family="'Noto Sans KR',sans-serif" font-size="40" font-weight="800" fill="#fff">치즈</text>
  <!-- 치즈 삼각 -->
  <g transform="translate(470 400)">
    <path d="M-180 60 L 180 -70 L 180 60 Z" fill="url(#chz)"/>
    <path d="M-180 60 L 180 -70 L 180 -46 L -150 74 Z" fill="#ffe58a"/>
    <g fill="#e0ad1f"><circle cx="70" cy="20" r="16"/><circle cx="120" cy="-6" r="12"/><circle cx="30" cy="40" r="10"/><circle cx="150" cy="34" r="9"/></g>
  </g>
  <!-- 계란(프라이) -->
  <g transform="translate(800 430)">
    <path d="M-120 -20 C -140 -80, -60 -120, 0 -100 C 70 -130, 150 -90, 150 -20 C 170 40, 110 90, 40 80 C 20 130, -70 130, -100 80 C -160 80, -170 20, -120 -20 Z" fill="#fff"/>
    <path d="M-120 -20 C -140 -80, -60 -120, 0 -100 C 70 -130, 150 -90, 150 -20 C 170 40, 110 90, 40 80 C 20 130, -70 130, -100 80 C -160 80, -170 20, -120 -20 Z" fill="none" stroke="#f0ece1" stroke-width="4"/>
    <circle cx="10" cy="-10" r="52" fill="url(#y2)"/>
  </g>
  <!-- + 배지 -->
  <g transform="translate(640 260)">
    <circle r="42" fill="#2f9e6f"/>
    <rect x="-20" y="-6" width="40" height="12" rx="6" fill="#fff"/>
    <rect x="-6" y="-20" width="12" height="40" rx="6" fill="#fff"/>
  </g>
</svg>
